<?xml version="1.0" standalone="no"?><!DOCTYPE svg PUBLIC "-//W3C//DTD SVG 1.1//EN" "http://www.w3.org/Graphics/SVG/1.1/DTD/svg11.dtd"><svg t="1575450075743" class="icon" viewBox="0 0 1024 1024" version="1.1" xmlns="http://www.w3.org/2000/svg" p-id="2823" xmlns:xlink="http://www.w3.org/1999/xlink" width="200" height="200"><defs><style type="text/css"></style></defs><path d="M933.304883 535.64042c3.390213 0 6.224772-0.575098 9.613962-2.278903 2.816139-1.12973 5.64865-2.815115 8.463766-5.073552l0-0.575098c4.538363-4.519943 7.354502-11.298324 7.354502-18.096147 0-6.223748-2.260483-13.004175-7.354502-17.522072-2.816139-2.833535-5.64865-4.538363-8.463766-5.66707-3.38919-1.686409-6.223748-2.25946-9.613962-2.25946L87.549473 484.168118c-2.825348 0-6.213515 0.573051-9.603729 2.25946-2.823302 1.12973-5.64865 2.833535-8.472975 5.66707-5.084808 4.517897-7.344269 11.298324-7.344269 18.075681 0 6.244214 2.824325 13.022595 7.344269 17.541515l0 0.575098c2.824325 2.258437 5.649674 3.943822 8.472975 5.073552 3.390213 1.703805 6.77838 2.278903 9.603729 2.278903" p-id="2824" fill="#ced4da"></path></svg>