<?xml version="1.0" standalone="no"?><!DOCTYPE svg PUBLIC "-//W3C//DTD SVG 1.1//EN" "http://www.w3.org/Graphics/SVG/1.1/DTD/svg11.dtd"><svg t="1575448810599" class="icon" viewBox="0 0 1024 1024" version="1.1" xmlns="http://www.w3.org/2000/svg" p-id="2189" xmlns:xlink="http://www.w3.org/1999/xlink" width="200" height="200"><defs><style type="text/css"></style></defs><path d="M536.139282 484.169141c132.202974 0 264.407995 0 397.165602 0 3.390213 0 6.224772 0.573051 9.613962 2.25946l0 0c2.816139 1.12973 5.64865 2.833535 8.463766 5.66707 5.094018 4.517897 7.354502 11.298324 7.354502 17.522072 0 6.797823-2.816139 13.576203-7.354502 18.096147l0 0.575098c-2.816139 2.258437-5.64865 3.943822-8.463766 5.073552l0 0c-3.38919 1.703805-6.223748 2.278903-9.613962 2.278903l0 0c-132.757606 0-264.962627 0-397.165602 0 0 132.338051 0 264.675078 0 397.588227 0 2.833535-0.574075 6.222725-2.25946 9.631358l0 0c-1.12973 2.815115-2.834558 5.649674-5.095042 8.482185l0 0c-5.072529 5.075599-11.851932 7.354502-18.074657 7.354502l0 0c-6.780427 0-13.557784-2.835581-18.076704-7.354502-2.825348-2.832512-4.519943-5.66707-5.64865-8.482185-1.694595-3.408633-2.25946-6.798846-2.25946-9.631358l0 0c0-132.913149 0-265.250176 0-397.588227-132.205021 0-264.407995 0-397.176858 0l0 0c-2.825348 0-6.213515-0.575098-9.603729-2.278903-2.823302-1.12973-5.64865-2.815115-8.472975-5.073552l0-0.575098 0 0c-4.519943-4.519943-7.344269-11.298324-7.344269-17.541515 0-6.77838 2.25946-13.557784 7.344269-18.075681l0 0c2.824325-2.833535 5.649674-4.538363 8.472975-5.66707 3.390213-1.686409 6.77838-2.25946 9.603729-2.25946l0 0c132.768863 0 264.971837 0 397.176858 0 0-132.357494 0-264.695544 0-397.60767l0 0c0-3.38919 0.564865-6.77838 2.25946-9.612938 1.128707-2.833535 2.823302-5.668093 5.64865-8.483208l0 0c4.51892-4.53734 11.296277-7.352455 18.076704-7.352455 6.222725 0 13.002129 2.815115 18.074657 7.352455 2.260483 2.815115 3.964288 5.649674 5.095042 8.483208 1.130753 1.12973 2.25946 7.928576 2.25946 9.612938C536.139282 86.561471 536.139282 451.346595 536.139282 484.169141L536.139282 484.169141z" p-id="2190" fill="#ced4da"></path></svg>